# xmcd
#
# Track frame offsets:
#	150
#	17314
#	31757
#	48589
#	61722
#	77956
#	95977
#	109475
#	126224
#	143948
#	157344
#	170807
#
# Disc length: 2479 seconds
#
# Revision: 0
# Processed by: cddbd v1.5.1PL2 Copyright (c) Steve Scherf et al.
# Submitted via: dBpowerAMP V4.0
#
DISCID=a909ad0c
DTITLE=Various Artist - CDX Vol. 386
DYEAR=1900
DGENRE=
TTITLE0=Roseanne Cash - Black Cadillac
TTITLE1=Susan Haynes - Drinkin' In My Sunday Dress
TTITLE2=Andy Griggs - I Never Had A Chance
TTITLE3=Joe Nichols - Size Matters (Someday)
TTITLE4=Rascal Flatts - What Hurts The Most
TTITLE5=John Corbett - Good To Go
TTITLE6=Vince Hatfield - California Cotton Fields
TTITLE7=Rhonda Towns - Somethin' Better
TTITLE8=Rob Barry - Southern Dream
TTITLE9=Miko Marks - Kickin' Back
TTITLE10=Shane Keane - Pearl McCoy
TTITLE11=Robert Bacon - Drinkin' Thinkin'
EXTD=
EXTT0=
EXTT1=
EXTT2=
EXTT3=
EXTT4=
EXTT5=
EXTT6=
EXTT7=
EXTT8=
EXTT9=
EXTT10=
EXTT11=
PLAYORDER=
